inDegrees=no
num_controls=7
num_derivatives=13
num_iterations=123
num_multipliers=7
num_parameters=0
num_slacks=7
num_states=26
objective=0.514819
objective_accelerations=0.043413
objective_balance=0.002304
objective_effort=0.047327
objective_height=0.409816
objective_ligament=0.011959
solver_duration=1625.506329
status=Solve_Succeeded
success=true
DataType=double
version=3
OpenSimVersion=4.5
endheader
time	/jointset/ground_pelvis/pelvis_tilt/value	/jointset/ground_pelvis/pelvis_tx/value	/jointset/ground_pelvis/pelvis_ty/value	/jointset/hip_l/hip_flexion_l/value	/jointset/hip_l/hip_adduction_l/value	/jointset/hip_l/hip_rotation_l/value	/jointset/back/lumbar_extension/value	/jointset/patellofemoral_l/patellar_flexion_l/value	/jointset/knee_l/knee_flexion_l/value	/jointset/knee_l/knee_adduction_l/value	/jointset/knee_l/knee_rotation_l/value	/jointset/ankle_l/ankle_angle_l/value	/jointset/subtalar_l/subtalar_angle_l/value	/jointset/ground_pelvis/pelvis_tilt/speed	/jointset/ground_pelvis/pelvis_tx/speed	/jointset/ground_pelvis/pelvis_ty/speed	/jointset/hip_l/hip_flexion_l/speed	/jointset/hip_l/hip_adduction_l/speed	/jointset/hip_l/hip_rotation_l/speed	/jointset/back/lumbar_extension/speed	/jointset/patellofemoral_l/patellar_flexion_l/speed	/jointset/knee_l/knee_flexion_l/speed	/jointset/knee_l/knee_adduction_l/speed	/jointset/knee_l/knee_rotation_l/speed	/jointset/ankle_l/ankle_angle_l/speed	/jointset/subtalar_l/subtalar_angle_l/speed	/forceset/tau_hip_flexion_l	/forceset/tau_hip_adduction_l	/forceset/tau_hip_rotation_l	/forceset/tau_knee_flexion_l	/forceset/tau_ankle_angle_l	/forceset/tau_subtalar_angle_l	/forceset/tau_lumbar_extension	lambda_cid13_p0	lambda_cid13_p1	lambda_cid13_p2	lambda_cid13_p3	lambda_cid13_p4	lambda_cid13_p5	lambda_cid14_p0	/jointset/ground_pelvis/pelvis_tilt/accel	/jointset/ground_pelvis/pelvis_tx/accel	/jointset/ground_pelvis/pelvis_ty/accel	/jointset/hip_l/hip_flexion_l/accel	/jointset/hip_l/hip_adduction_l/accel	/jointset/hip_l/hip_rotation_l/accel	/jointset/back/lumbar_extension/accel	/jointset/patellofemoral_l/patellar_flexion_l/accel	/jointset/knee_l/knee_flexion_l/accel	/jointset/knee_l/knee_adduction_l/accel	/jointset/knee_l/knee_rotation_l/accel	/jointset/ankle_l/ankle_angle_l/accel	/jointset/subtalar_l/subtalar_angle_l/accel	gamma_cid13_p0	gamma_cid13_p1	gamma_cid13_p2	gamma_cid13_p3	gamma_cid13_p4	gamma_cid13_p5	gamma_cid14_p0
1	-0.1933758391363496	-0.100034538143838	0.6990310332042073	1.368792991580849	-0.3268367576761355	0.02238049561917269	-0.9599173434974724	1.235533058831715	1.235533058831574	-0.0760565788456809	-0.1745302321098971	0.1431372648645714	0.01291002062911665	0.09994863824215591	0.02391259978409816	0.06844515863415307	-0.2855365270930761	-0.001655083574139562	-0.06393293744579799	-0.002028717141720145	-0.1610330865489291	-0.1610330865489599	0.001483964782993538	-1.957274506066033e-05	0.01637488253545582	0.00504820762459817	-0.4246867116822508	0.01119480257617848	-0.003824275330061691	-0.3031030197934379	0.1120888179222698	0.03759296501252315	0.4488558800310158	-14.88563512213812	-13.30062333553441	1.186852225393584	6.032350096268112	-794.4841036650359	-66.58843807686218	-0.548725672851793	1.165996549265023	0.164867572858671	1.406775713640354	-5.092355642378601	-0.06824096767518348	-1.512550282573429	0.1174443092376039	-4.366263459107156	-4.366263459107163	-0.2168963549137683	-0.01297186549384131	-0.7277507360640825	-0.3208341888770403	-9.813189101160808e-09	-7.122243257345776e-09	4.629845807564076e-08	3.36932397082415e-09	-2.212969571383715e-08	7.122152347963813e-08	-1.309413524335136e-08
1.01	-0.1923183177089358	-0.09978710980717516	0.699785633319349	1.365683712944187	-0.32685601628698	0.02166520848910108	-0.9599310555824309	1.233704778198004	1.233704778197628	-0.07605118174455908	-0.1745303353874264	0.1432647844538086	0.01294533441330957	0.1115772294017314	0.02558158088647481	0.08246692189372787	-0.3363287969338647	-0.002189669015409202	-0.07911802225118245	-0.000700498534639996	-0.2046136723350705	-0.2046136723350736	-0.0004047676129130219	-3.38591445923302e-06	0.009127632582759249	0.002021873650142504	-0.4241902863837579	0.01145140470989442	-0.003871702518034814	-0.3027083731991794	0.1117503493963933	0.03772694415752642	0.4487572874833093	-14.96672653004411	-13.35425594674796	1.206418448431059	5.928595828601902	-794.2374941061853	-66.65123830009976	-0.5705544878123797	1.164525848826938	0.1691922576996344	1.398679604795714	-5.074104755328932	-0.04502475635523882	-1.520532634523502	0.1424908351372875	-4.352547477164192	-4.352547477160011	-0.1749041687681823	0.008583634605763012	-0.7234235329253298	-0.292439269365642	-1.586475202337155e-08	-1.466304431310743e-08	6.298825820998114e-08	9.3303017829705e-09	-2.81999057628339e-08	8.36701947547024e-08	-1.736919328735697e-08
1.02	-0.1911438632800197	-0.09952273588373403	0.7006802116616224	1.362066223189044	-0.326880412237037	0.02079826149997578	-0.9599310885968813	1.231440973438672	1.231440973438056	-0.07606468046476247	-0.1745303428611967	0.1433197892619084	0.01295060360423075	0.1233352385422301	0.02730171713975373	0.09644080406049874	-0.3871787507906498	-0.002682551416774063	-0.0942649092566691	0.0007069280202010685	-0.2481379116730737	-0.2481379116730483	-0.002295199482383215	-4.119931125999619e-07	0.001871926307947066	-0.0009607110297456189	-0.4236938610852472	0.01170800684361215	-0.003919129705986262	-0.3023137266049199	0.1114118808705138	0.03786092330253035	0.4486586949356194	-15.05787138360458	-13.40549548572485	1.224880424230955	5.862027306400608	-794.1256441203122	-66.69959868519254	-0.5982052337111856	1.191880145449659	0.1750986030391135	1.397199495079571	-5.103892445577907	-0.05990035969422294	-1.504910722593864	0.1332858987898209	-4.354994169479494	-4.354994169479366	-0.217236249626492	-0.01561444734479112	-0.7294420004872224	-0.3120843299635315	-2.157871485171098e-08	-2.324793193993765e-08	7.813024440545447e-08	1.451628634582403e-08	-3.419463117575471e-08	9.389394407221401e-08	-2.139455133907794e-08
1.03	-0.1898519930384363	-0.09924072418263523	0.701714239938955	1.357940570602095	-0.3269094896147565	0.0197801018964337	-0.9599145965613082	1.228742120083829	1.228742120083602	-0.07609715024392276	-0.1745303260130613	0.1433022993459559	0.01292635066635686	0.1349798820697291	0.02912749219702667	0.1103521658777182	-0.4379003957029675	-0.003123207609725842	-0.1093580501684291	0.002810168742046864	-0.291632710262348	-0.2916327102623119	-0.004203148448020319	4.422048907331512e-06	-0.005360817986511265	-0.003875337084094208	-0.4243389154405612	0.01205159299959502	-0.003980392870514575	-0.3017249735586325	0.1113464561154108	0.03810633782394086	0.4500456701040679	-15.09408418072609	-13.52116205479854	1.260938308900154	5.365323926852185	-794.8577064999433	-66.80335628624763	-0.6320653747065367	1.14191499139607	0.1903512948433798	1.386193621744882	-5.048598330651039	-0.03469563118459446	-1.510193993363855	0.2816212620746812	-4.346710240809717	-4.346710240808211	-0.1782467653493921	0.008650437663715926	-0.7188293380859477	-0.2789764401689025	-2.728923278113336e-08	-3.184347351137062e-08	9.325643658114343e-08	1.969436281429701e-08	-4.018858633728699e-08	1.040949901044445e-07	-2.541736143169397e-08
1.04	-0.1884454446545774	-0.09893964786340928	0.7028869996538002	1.35330924200271	-0.3269426830308227	0.01861127524019533	-0.9598705156530749	1.225608321235661	1.225608321235819	-0.07614883402180178	-0.1745302372029705	0.1432127542482266	0.0128733865285398	0.1462708669970692	0.03111464076518616	0.1241870915630141	-0.4883139532789771	-0.003505759086234832	-0.124398319796061	0.00622453359159942	-0.3351270103379551	-0.33512701033791	-0.006137999226340678	1.398039846051613e-05	-0.01253911004740242	-0.006702951018378103	-0.4249839697958566	0.01239517915557953	-0.00404165603503066	-0.3011362205123448	0.1112810313603043	0.03835175234535184	0.4514326452725336	-15.14051987506478	-13.63449719879471	1.296006087374102	4.904535629890756	-795.7278999525904	-66.89352078691323	-0.6725645026720173	1.121148425417898	0.20737330521641	1.381912268694857	-5.042274978316275	-0.04827941640566107	-1.494336465768253	0.3955107243311246	-4.354894466746053	-4.354894466746293	-0.2226166121631394	-0.01466958583813403	-0.7185515537738069	-0.2946819059505951	-2.985663727928801e-08	-4.057367761204869e-08	1.056299840212203e-07	1.873299594955804e-08	-4.332880664359712e-08	1.104964115721883e-07	-2.892977754508155e-08
1.05	-0.1869275068781062	-0.09861789218431308	0.7041976269006784	1.348175369534459	-0.3269794086704415	0.01729245856697456	-0.9597861962060217	1.222039909243753	1.222039909243875	-0.07622004701680477	-0.1745300642855063	0.1430517432430005	0.01279260089832761	0.1572798974181275	0.03326341049594757	0.1379153956477355	-0.5384010816373455	-0.003827105555838455	-0.1393465010515713	0.01081511194599785	-0.3785226108875057	-0.3785226108874756	-0.008105642941631856	1.933233417005294e-05	-0.01964914270849338	-0.009434863205402041	-0.4249531286624694	0.01273301077051465	-0.004118147908187072	-0.3003048218611189	0.1112375422288589	0.0386523164969531	0.4521814614937923	-15.13009262003288	-13.78626064196196	1.34236383939574	4.402154136569332	-795.8439585108695	-67.0264933780351	-0.7202211806910924	1.085258604819651	0.2226696275583237	1.364835846823636	-4.983017289564414	-0.02222947083035205	-1.492310431117962	0.5171948099794375	-4.326969755081604	-4.326969755083684	-0.1840124039576429	0.007974480914176914	-0.7051398075310222	-0.2595548221197789	-3.232581948271555e-08	-4.930808991676566e-08	1.179175113133093e-07	1.757977148065623e-08	-4.637984773568157e-08	1.16779094772292e-07	-3.242624384661824e-08
